<?xml version="1.0" encoding="utf-8"?>
<!-- Generator: Adobe Illustrator 21.0.0, SVG Export Plug-In . SVG Version: 6.00 Build 0)  -->
<svg version="1.1" id="Capa_1" xmlns="http://www.w3.org/2000/svg" xmlns:xlink="http://www.w3.org/1999/xlink" x="0px" y="0px"
	 viewBox="0 0 512 512" style="enable-background:new 0 0 512 512;" xml:space="preserve">
<style type="text/css">
	.st0{fill:#00BFD8;}
</style>
<g id="Outline">
	<rect x="248" y="448" class="st0" width="16" height="16"/>
	<path class="st0" d="M56,192h29.4l53.9,38.5c3.6,2.6,8.6,1.7,11.2-1.9c1.3-1.8,1.8-4.1,1.3-6.2l-6.1-30.4H200c22.1,0,40-17.9,40-40
		V56c0-22.1-17.9-40-40-40H56c-22.1,0-40,17.9-40,40v96C16,174.1,33.9,192,56,192z M32,56c0-13.2,10.8-24,24-24h144
		c13.2,0,24,10.8,24,24v96c0,13.2-10.8,24-24,24h-64c-4.4,0-8,3.6-8,8c0,0.5,0.1,1.1,0.2,1.6l4,20.2l-39.5-28.2
		c-1.4-1-3-1.5-4.6-1.5H56c-13.2,0-24-10.8-24-24V56z"/>
	<path class="st0" d="M72,96v48c0,4.4,3.6,8,8,8h64c4.4,0,8-3.6,8-8v-3.1l20.4,10.2c4,2,8.8,0.4,10.7-3.6c0.6-1.1,0.8-2.3,0.8-3.6
		V96c0-4.4-3.6-8-8-8c-1.2,0-2.5,0.3-3.6,0.8L152,99.1V96c0-0.1-0.1-0.2-0.1-0.4c10.9-11,10.8-28.7-0.1-39.5
		c-11-10.9-28.7-10.8-39.5,0.1c-0.1,0.1-0.2,0.2-0.3,0.3c-10.7-11.1-28.4-11.4-39.5-0.6s-11.4,28.4-0.6,39.5
		c0.1,0.1,0.2,0.2,0.3,0.3C72.1,95.8,72,95.9,72,96z M136,136H88v-32h48V136z M168,108.9v22.1l-16-8v-6.1L168,108.9z M132,64
		c6.6,0,12,5.4,12,12s-5.4,12-12,12c-6.6,0-12-5.4-12-12C120,69.4,125.4,64,132,64z M92,64c6.6,0,12,5.4,12,12s-5.4,12-12,12
		s-12-5.4-12-12C80,69.4,85.4,64,92,64z"/>
	<path class="st0" d="M456,80h-72.8C379.4,61.4,363,48,344,48h-88v16h88c10.1,0,19.2,6.4,22.5,16H296c-22.1,0-40,17.9-40,40v96
		c0,22.1,17.9,40,40,40h62.2l-6.1,30.4c-0.9,4.3,1.9,8.5,6.3,9.4c2.2,0.4,4.4,0,6.2-1.3l3.4-2.4v32.6l-22.3-22.3
		c-14.2-14.2-37.1-14.2-51.3,0s-14.2,37.1,0,51.3l0,0l47.3,47.3c-3.1,4.7-5.6,9.7-7.5,15H128v40c0,22.1,17.9,40,40,40h280
		c4.4,0,8-3.6,8-8V336.3c0-21.1-7.6-41.6-21.4-57.5l-17-22.1l1-0.7H456c22.1,0,40-17.9,40-40v-96C496,97.9,478.1,80,456,80z M296,96
		h160c13.2,0,24,10.8,24,24v81.1l-35.6-23.7c-2.7-1.8-6.2-1.8-8.9,0l-43.3,28.9l-59.5-44.6c-2.8-2.1-6.8-2.1-9.6,0L272,200v-80
		C272,106.8,282.8,96,296,96z M144,456v-24h185.7c-2.6,16.4,0.2,33.2,7.8,48H168C154.8,480,144,469.2,144,456z M422.2,288.9
		c11.5,13.1,17.8,30,17.8,47.4V480h-84c-11-15.6-14.2-35.4-8.7-53.7c1.7-5.8,4.3-11.4,7.7-16.5l3.6-5.4c2.1-3.2,1.7-7.4-1-10.1
		l-52-52c-7.9-7.9-7.9-20.8,0-28.7c7.9-7.9,20.8-7.9,28.7,0l0,0l68,68l11.3-11.3L384,340.7v-60l20.5-14.7L422.2,288.9z M456,240h-40
		c-1.7,0-3.3,0.5-4.6,1.5l-39.5,28.2l4-20.2c0.9-4.3-1.9-8.5-6.3-9.4c-0.5-0.1-1-0.2-1.6-0.2h-72c-11.8,0-21.8-8.6-23.6-20.3
		L328,178l59.2,44.4c2.7,2,6.4,2.1,9.2,0.3l43.6-29l39.6,26.4C477.7,231.5,467.7,240,456,240z"/>
	<path class="st0" d="M392,176c17.7,0,32-14.3,32-32s-14.3-32-32-32s-32,14.3-32,32C360,161.7,374.3,176,392,176z M392,128
		c8.8,0,16,7.2,16,16s-7.2,16-16,16s-16-7.2-16-16C376,135.2,383.2,128,392,128z"/>
	<path class="st0" d="M56,400h128c22.1,0,40-17.9,40-40v-48c0-22.1-17.9-40-40-40h-5.8l5.5-22.1c1.1-4.3-1.5-8.6-5.8-9.7
		c-2-0.5-4.1-0.2-5.9,0.8L117.9,272H56c-22.1,0-40,17.9-40,40v48C16,382.1,33.9,400,56,400z M32,312c0-13.2,10.8-24,24-24h64
		c1.4,0,2.8-0.4,4-1.1l39.7-22.7l-3.5,13.8c-1.1,4.3,1.5,8.6,5.8,9.7c0.6,0.2,1.3,0.2,1.9,0.2h16c13.2,0,24,10.8,24,24v48
		c0,13.2-10.8,24-24,24H56c-13.2,0-24-10.8-24-24V312z"/>
	<rect x="48" y="312" class="st0" width="88" height="16"/>
	<rect x="152" y="312" class="st0" width="40" height="16"/>
	<rect x="48" y="344" class="st0" width="144" height="16"/>
</g>
</svg>
