<?xml version="1.0" encoding="utf-8"?>
<!-- Generator: Adobe Illustrator 21.0.0, SVG Export Plug-In . SVG Version: 6.00 Build 0)  -->
<svg version="1.1" id="Capa_1" xmlns="http://www.w3.org/2000/svg" xmlns:xlink="http://www.w3.org/1999/xlink" x="0px" y="0px"
	 viewBox="0 0 512 512" style="enable-background:new 0 0 512 512;" xml:space="preserve">
<style type="text/css">
	.st0{fill:#00BFD8;}
</style>
<path class="st0" d="M483.1,68.8l-21.9-19.3l21.9-19.3c3.4-3,4.6-7.7,3-11.9c-1.6-4.2-5.6-7-10.1-7h-90.5V7.5c0-4.1-3.4-7.5-7.5-7.5
	s-7.5,3.4-7.5,7.5v101.2l-61.6,33.5c-0.3-2.7-1.2-5.4-2.4-7.9l-8.7-17c-6-11.6-20.3-16.3-31.9-10.3l-6.7,3.4
	c-5.6,2.9-9.8,7.8-11.8,13.8c-1.9,6-1.4,12.5,1.5,18.1l8.7,17c2,4,5,7.1,8.5,9.3c-4.6,6.2-6.8,13.8-9,21.8l-1.6,5.7
	c-1.1,4,1.2,8.1,5.2,9.3c0.7,0.2,1.4,0.3,2,0.3c3.3,0,6.3-2.2,7.2-5.5l1.6-5.7c3.3-11.6,5.3-17.8,11.7-21.3l11.5-6.3l1.4-0.7
	c0.5-0.2,0.9-0.5,1.4-0.8l82.2-44.6c-0.5,10.3-6,20-15.1,25.5L311,178.8c-0.1,0-0.1,0.1-0.2,0.1L294.2,189
	c-3.5,2.2-4.7,6.8-2.5,10.3c2,3.3,6.2,4.5,9.7,2.9l-12.6,38.1l-9.2,3.8l-25.1,10.3l7.2-25.5c1.1-4-1.2-8.1-5.2-9.3
	c-4-1.1-8.1,1.2-9.3,5.2l-11.4,40.4c-0.1,0.5-0.2,1.1-0.3,1.6l-3,54.9c-0.1,2.1,0.4,6.1-0.6,8.1l-33.2,69.8h-24.1
	c-14.1,0-25.6,11.5-25.6,25.6v21.7c-3.2-1.5-6.8-2.3-10.6-2.3H77.1c-14.1,0-25.6,11.5-25.6,25.6V497h-18c-4.1,0-7.5,3.4-7.5,7.5
	s3.4,7.5,7.5,7.5h442.4c4.1,0,7.5-3.4,7.5-7.5s-3.4-7.5-7.5-7.5h-19.5V303.6c0-14.1-11.5-25.6-25.6-25.6h-45.4V147
	c8.3-11.3,11.4-26.1,7.5-40.1c-0.6-2.2-2.2-4-4.3-4.9c-1-0.4-2.1-0.6-3.2-0.6V87.7h90.5c4.5,0,8.5-2.7,10.1-7S486.5,71.8,483.1,68.8
	z M261.5,128.9c0.7-2.2,2.2-4,4.3-5.1l6.7-3.4c1.3-0.6,2.6-1,4-1c3.2,0,6.2,1.7,7.8,4.7l8.7,17c2,4,0.7,8.8-2.9,11.2l-2.4,1.3
	l-5.2,2.6c-4.3,2.2-9.5,0.5-11.7-3.8l-8.7-17C261,133.5,260.8,131.1,261.5,128.9z M246.5,401.8c-2.6-1.2-5.3-1.9-8.2-2.2l8.2-10.9
	V401.8z M282.1,341.4c3.6-4.3,4.6-9.4,5.4-13.4c0.2-1,3.9-21.2,3.9-21.2s3.5,2.2,3.9,2.3c0.3,0.1,0.4,0.4,0.5,0.7l4.1,41.5h-25.1
	L282.1,341.4z M326.5,300l-6.3,51.2h-5.2l-4.2-42.9c-0.5-5.5-3.9-10.3-8.8-12.7l-7.5-4.8l5-27.9c0,0,21.2,25.2,21.7,25.8
	C325.4,294.4,326.9,296.7,326.5,300z M245.4,336.3c1.5-4.6,2.2-9.2,2.1-13.9l2.7-50.1l34.7-14.2l-6.3,34.9c0,0.1,0,0.2-0.1,0.3
	l-5.2,28.9c-0.7,3-1.3,7.5-3.1,10l-50.7,67.4h-4.2L245.4,336.3z M66.5,470.1c0-5.8,4.8-10.6,10.6-10.6h61.2
	c5.9,0,10.6,4.8,10.6,10.6V497H66.5V470.1z M164,470.1v-45c0-5.9,4.8-10.6,10.6-10.6h61.2c5.9,0,10.6,4.8,10.6,10.6V497H164
	L164,470.1L164,470.1z M441.4,303.6V497H359v-45c0-4.1-3.4-7.5-7.5-7.5c-4.1,0-7.5,3.4-7.5,7.5v45h-82.5V376.8
	c0-5.8,4.8-10.6,10.6-10.6h61.2c5.9,0,10.6,4.8,10.6,10.6v37.6c0,4.1,3.4,7.5,7.5,7.5c4.1,0,7.5-3.4,7.5-7.5V303.6
	c0-5.9,4.8-10.6,10.6-10.6h8.3c0,0,0.1,0,0.1,0c0,0,0.1,0,0.1,0h52.8C436.7,293,441.4,297.7,441.4,303.6z M369.6,278
	c-14.1,0-25.6,11.5-25.6,25.6v50c-2.7-1.2-5.6-2-8.7-2.2l6.1-49.5c1.2-9.6-3.7-16-8.5-22.2c-0.5-0.7-29.7-35.3-29.7-35.3l17.9-54.1
	l49.3-29.9V278H369.6z M385.4,72.7V26.4h79.4l-17.1,15.1c-2.3,2.1-3.7,5-3.7,8.1s1.3,6.1,3.7,8.1l17.1,15.1L385.4,72.7L385.4,72.7z"
	/>
</svg>
