<?xml version="1.0" standalone="no"?>
<!DOCTYPE svg PUBLIC "-//W3C//DTD SVG 20010904//EN"
 "http://www.w3.org/TR/2001/REC-SVG-20010904/DTD/svg10.dtd">
<svg version="1.0" xmlns="http://www.w3.org/2000/svg"
 width="1280.000000pt" height="640.000000pt" viewBox="0 0 1280.000000 640.000000"
 preserveAspectRatio="xMidYMid meet">
<metadata>
Created by potrace 1.16, written by Peter Selinger 2001-2019
</metadata>
<g transform="translate(0.000000,640.000000) scale(0.100000,-0.100000)"
fill="#000000" stroke="none">
<path d="M9210 5523 c-270 -124 -597 -222 -817 -243 -52 -5 -97 -10 -99 -13
-2 -2 71 -44 162 -93 92 -49 166 -94 165 -99 0 -6 -206 -227 -458 -493 l-457
-483 -241 241 c-132 132 -243 240 -247 240 -4 0 -287 -291 -629 -647 -342
-357 -624 -649 -628 -650 -3 -2 -269 268 -590 598 l-585 600 -95 -95 -95 -95
25 -28 c117 -127 1331 -1413 1338 -1417 4 -3 289 292 632 655 l624 661 235
-241 c129 -133 238 -241 241 -241 3 0 262 266 574 590 313 325 571 590 574
590 4 0 42 -79 86 -177 60 -134 81 -172 86 -157 5 10 20 96 34 189 36 230 72
360 186 668 33 87 59 160 59 162 0 10 -27 3 -80 -22z"/>
<path d="M5920 4824 c-289 -305 -527 -559 -528 -565 -4 -10 166 -199 179 -199
4 0 216 217 470 483 254 265 496 517 537 559 l75 77 -93 100 c-51 56 -98 101
-104 101 -6 0 -247 -250 -536 -556z"/>
<path d="M5289 4973 c-133 -142 -254 -270 -267 -285 l-25 -27 94 -100 c52 -55
99 -101 105 -101 10 0 535 552 542 569 1 5 -44 51 -102 105 l-104 96 -243
-257z"/>
<path d="M6305 4431 c-291 -308 -531 -565 -532 -573 -2 -7 39 -58 90 -112 l93
-99 537 563 c295 310 537 567 537 571 0 10 -179 209 -188 209 -4 0 -245 -252
-537 -559z"/>
<path d="M4302 3997 c-50 -51 -92 -98 -92 -105 0 -15 1736 -1842 1750 -1842 5
0 331 338 725 751 647 677 715 752 703 767 -96 112 -172 198 -178 200 -5 2
-286 -291 -625 -650 -340 -359 -621 -654 -625 -656 -4 -2 -355 364 -779 813
-425 448 -775 815 -779 815 -4 0 -49 -42 -100 -93z"/>
<path d="M3077 1996 c-51 -19 -81 -48 -109 -105 -18 -38 -22 -63 -23 -141 0
-153 27 -202 160 -285 86 -53 105 -82 105 -155 0 -77 -21 -110 -72 -110 -34 0
-58 33 -65 90 l-6 40 -63 0 -64 0 0 -48 c0 -167 105 -262 253 -231 105 23 152
109 152 279 -1 148 -35 210 -155 280 -88 51 -103 70 -107 133 -5 71 12 101 59
105 32 3 39 -1 52 -27 9 -16 16 -44 16 -61 l0 -30 66 0 67 0 -6 61 c-7 78 -50
167 -94 192 -43 24 -119 31 -166 13z"/>
<path d="M5237 1996 c-51 -19 -81 -48 -109 -105 -18 -38 -22 -63 -23 -141 0
-153 27 -202 160 -285 86 -53 105 -82 105 -155 0 -77 -21 -110 -72 -110 -34 0
-58 33 -65 90 l-6 40 -63 0 -64 0 0 -48 c0 -167 105 -262 253 -231 105 23 152
109 152 279 -1 148 -35 210 -155 280 -88 51 -103 70 -107 133 -5 71 12 101 59
105 32 3 39 -1 52 -27 9 -16 16 -44 16 -61 l0 -30 66 0 67 0 -6 61 c-7 78 -50
167 -94 192 -43 24 -119 31 -166 13z"/>
<path d="M5720 1999 c-55 -17 -100 -57 -126 -113 -23 -50 -24 -56 -24 -357 0
-335 4 -366 58 -422 42 -45 81 -60 147 -60 129 0 200 77 212 231 l6 72 -72 0
-71 0 0 -34 c0 -76 -45 -127 -93 -105 -43 20 -47 44 -47 308 0 268 6 306 48
322 48 18 92 -32 92 -107 l0 -34 70 0 70 0 0 53 c0 104 -44 198 -110 232 -37
19 -118 26 -160 14z"/>
<path d="M6220 1999 c-55 -17 -100 -57 -126 -113 -23 -50 -24 -56 -24 -357 0
-335 4 -366 58 -422 42 -45 81 -60 147 -61 104 0 179 60 205 164 8 31 10 146
8 345 -3 270 -5 304 -22 335 -24 45 -54 78 -87 95 -36 19 -117 26 -159 14z
m82 -160 c42 -22 48 -64 48 -314 0 -250 -6 -292 -49 -314 -26 -15 -65 3 -80
36 -15 33 -15 509 0 552 6 18 21 36 33 41 28 11 25 12 48 -1z"/>
<path d="M7187 1996 c-51 -19 -81 -48 -109 -105 -18 -38 -22 -63 -23 -141 0
-153 27 -202 160 -285 86 -53 105 -82 105 -155 0 -77 -21 -110 -72 -110 -34 0
-58 33 -65 90 l-6 40 -63 0 -64 0 0 -48 c0 -167 105 -262 253 -231 105 23 152
109 152 279 -1 148 -35 210 -155 280 -88 51 -103 70 -107 133 -5 71 12 101 59
105 32 3 39 -1 52 -27 9 -16 16 -44 16 -61 l0 -30 66 0 67 0 -6 61 c-7 78 -50
167 -94 192 -43 24 -119 31 -166 13z"/>
<path d="M9620 1999 c-55 -17 -100 -57 -126 -113 -23 -50 -24 -56 -24 -357 0
-335 4 -366 58 -422 42 -45 81 -60 147 -60 68 0 113 19 157 67 46 50 58 109
58 288 l0 158 -110 0 -110 0 0 -70 0 -70 40 0 40 0 0 -69 c0 -82 -10 -114 -43
-136 -30 -20 -69 -5 -86 32 -15 33 -15 509 0 552 29 84 129 44 129 -51 l0 -38
71 0 72 0 -5 73 c-6 98 -44 169 -109 202 -36 19 -117 26 -159 14z"/>
<path d="M3410 1525 l0 -465 170 0 170 0 0 75 0 75 -100 0 -100 0 0 120 0 120
85 0 85 0 0 80 0 80 -85 0 -85 0 0 110 0 110 100 0 100 0 0 80 0 80 -170 0
-170 0 0 -465z"/>
<path d="M3810 1525 l0 -465 170 0 170 0 0 75 0 75 -100 0 -100 0 0 390 0 390
-70 0 -70 0 0 -465z"/>
<path d="M4345 1968 c-3 -13 -44 -212 -90 -443 -47 -231 -87 -430 -90 -442 -5
-22 -3 -23 69 -23 l74 0 12 73 c18 115 11 107 100 107 l79 0 7 -47 c3 -27 9
-66 13 -88 l6 -40 73 -3 c57 -2 72 0 72 12 0 8 -40 214 -90 459 -49 245 -90
448 -90 451 0 3 -31 6 -70 6 -64 0 -70 -2 -75 -22z m105 -426 c12 -79 20 -146
17 -148 -3 -3 -27 -4 -54 -2 l-48 3 24 158 c14 87 28 152 32 145 3 -7 16 -77
29 -156z"/>
<path d="M4720 1525 l0 -465 170 0 170 0 0 75 0 75 -100 0 -100 0 0 120 0 120
85 0 85 0 0 80 0 80 -85 0 -85 0 0 110 0 110 100 0 100 0 0 80 0 80 -170 0
-170 0 0 -465z"/>
<path d="M6560 1525 l0 -465 70 0 70 0 1 223 1 222 38 -120 c21 -66 53 -166
70 -222 l32 -103 69 0 69 0 0 465 0 465 -70 0 -70 0 -2 -226 -3 -226 -66 223
-66 224 -71 3 -72 3 0 -466z"/>
<path d="M7520 1618 c0 -213 4 -388 10 -408 17 -60 64 -125 106 -145 58 -28
130 -25 186 8 36 21 53 40 75 84 l28 58 3 388 3 387 -71 0 -70 0 0 -354 c0
-235 -4 -364 -11 -385 -21 -59 -88 -61 -109 -5 -6 14 -10 181 -10 385 l0 359
-70 0 -70 0 0 -372z"/>
<path d="M8010 1525 l0 -465 170 0 170 0 0 75 0 75 -100 0 -100 0 0 390 0 390
-70 0 -70 0 0 -465z"/>
<path d="M8300 1910 l0 -80 65 0 65 0 0 -385 0 -385 70 0 70 0 0 385 0 385 60
0 60 0 0 80 0 80 -195 0 -195 0 0 -80z"/>
<path d="M8740 1525 l0 -465 70 0 70 0 0 465 0 465 -70 0 -70 0 0 -465z"/>
<path d="M8960 1525 l0 -465 70 0 70 0 1 223 1 222 38 -120 c21 -66 53 -166
70 -222 l32 -103 69 0 69 0 0 465 0 465 -70 0 -70 0 -2 -226 -3 -226 -66 223
-66 224 -71 3 -72 3 0 -466z"/>
</g>
</svg>
